<svg width="36" height="32" viewBox="0 0 36 32" fill="none" xmlns="http://www.w3.org/2000/svg">
<path d="M10.1303 0.792402C12.4968 0.758105 14.5547 1.61554 16.3038 3.19323C16.8526 3.67339 17.3671 4.22215 17.8815 4.77091C18.1559 5.07959 18.3274 5.04529 18.6361 4.77091C19.4249 4.01637 20.1452 3.19323 21.0369 2.54158C26.0786 -1.16256 33.1439 1.13538 35.0989 7.17174C36.265 10.7044 35.6133 13.9626 33.0067 16.6378C28.4109 21.3709 23.7464 26.0354 19.1162 30.7341C18.5675 31.2829 17.9501 31.2829 17.4014 30.7341C12.7712 26.0354 8.10673 21.3709 3.47657 16.6378C-1.39368 11.6304 0.97285 3.46761 7.00921 1.34116C8.00384 0.998187 9.06706 0.860997 10.1303 0.655212C10.096 0.68951 10.1303 0.758105 10.1303 0.792402Z" fill="#FFA944"/>
</svg>
