<svg width="38" height="31" viewBox="0 0 38 31" fill="none" xmlns="http://www.w3.org/2000/svg">
<g clip-path="url(#clip0_482_8)">
<path d="M32.6382 19.8577C32.8597 22.0832 33.9321 23.2189 36.2051 23.6433C36.9162 23.781 37.3008 24.2284 37.3125 24.9626C37.3242 26.1786 37.4291 27.4176 36.7064 28.5189C35.937 29.6775 34.8879 30.5035 33.4425 30.515C27.1947 30.5494 20.9468 30.5379 14.6989 30.5379C14.6639 30.5379 14.6173 30.5264 14.5823 30.515C14.5707 30.4117 14.6173 30.3199 14.6872 30.2626C15.8062 29.3219 15.3633 28.0944 15.2467 26.9702C15.1884 26.431 14.4424 26.0868 13.8713 26.1557C13.2535 26.236 12.7639 26.649 12.694 27.2455C12.624 27.9223 12.6473 28.6106 12.6823 29.2989C12.694 29.5857 12.8688 29.7922 13.0553 29.9873C13.2068 30.1479 13.44 30.2511 13.4516 30.515C10.2111 30.515 6.97061 30.5723 3.7301 30.5035C1.86506 30.4691 0.0816135 28.5074 0.0349875 26.626C0.023331 26.0754 0.023331 25.5133 0.0349875 24.9626C0.0349875 24.2055 0.442965 23.7581 1.20064 23.6433C3.31047 23.3221 4.56937 21.9685 4.69759 19.8691C4.95403 19.6397 5.26876 19.6741 5.57183 19.6741C7.41356 19.6741 9.24363 19.6741 11.0854 19.6741C12.1694 19.6741 12.1578 19.6741 12.1927 18.6302C12.2044 18.3319 12.0878 17.9648 12.4841 17.7813C12.7989 18.1139 12.659 18.5384 12.6823 18.917C12.7056 19.2038 12.7056 19.4791 12.6706 19.7659C12.6706 20.4083 12.6473 21.0622 12.6706 21.7046C12.694 22.5535 13.2535 23.1271 14.0345 23.1042C14.7921 23.0927 15.3167 22.5421 15.3516 21.7161C15.375 21.0737 15.3516 20.4198 15.3633 19.7774C15.3283 19.307 15.34 18.8252 15.3516 18.3548C15.3516 18.1484 15.3633 17.9304 15.5381 17.7813C15.9112 17.9419 15.8296 18.286 15.8296 18.5728C15.8529 19.6741 15.7246 19.6741 17.0069 19.6741C21.8676 19.6741 26.7284 19.6741 31.5892 19.6741C31.9389 19.6626 32.3235 19.5823 32.6382 19.8577Z" fill="#FFA944"/>
<path d="M32.6383 19.8576C27.218 19.8576 21.786 19.8462 16.3658 19.8691C15.7829 19.8691 15.5731 19.7429 15.6197 19.1464C15.6547 18.699 15.7363 18.2401 15.5498 17.7927C15.3516 17.7009 15.3283 17.4945 15.2351 17.3338C14.967 16.8291 14.5357 16.5767 13.9762 16.5882C13.44 16.5996 13.0203 16.8406 12.7756 17.3338C12.694 17.4945 12.659 17.7009 12.4608 17.7927C12.2743 18.286 12.3792 18.8022 12.3909 19.307C12.3909 19.7315 12.2627 19.8576 11.8314 19.8576C9.45345 19.8462 7.07553 19.8576 4.6976 19.8576C4.59269 17.7583 3.33379 16.4046 1.16568 16.0605C0.571196 15.9687 0.104935 15.6475 0.0699657 15.051C-0.0116299 13.8235 -0.116538 12.573 0.52457 11.4259C1.10739 10.3475 1.99329 9.63627 3.18225 9.29211C3.38041 9.23475 3.57858 9.15445 3.77674 9.08562C6.65589 8.8906 9.53505 9.03973 12.4142 8.99385C12.7406 8.99385 13.0786 8.94796 13.37 9.13151C13.5332 9.40683 13.2651 9.51008 13.1369 9.6248C12.7756 9.94601 12.624 10.3246 12.6473 10.7949C12.6707 11.2882 12.624 11.7815 12.659 12.2863C12.7056 13.0434 13.2884 13.5826 14.0228 13.5596C14.7455 13.5367 15.2934 13.0204 15.34 12.2863C15.375 11.7127 15.3516 11.1391 15.3516 10.577C15.3516 10.1869 15.1418 9.90012 14.8737 9.63627C14.7455 9.51008 14.4774 9.4183 14.6289 9.13151C14.8854 8.95943 15.1885 8.98237 15.4799 8.98237C21.3664 8.98237 27.2529 8.98237 33.1278 8.98237C33.5358 8.98237 33.9554 8.9709 34.2702 9.29211C36.2751 10.0148 37.4058 11.6782 37.3009 13.7317C37.2892 14.0529 37.3009 14.3856 37.3009 14.7068C37.3009 15.4869 36.8929 15.9458 36.1002 16.0605C34.0603 16.3358 32.7432 17.7812 32.6383 19.8576Z" fill="#FFA944"/>
<path d="M13.4283 9.2577C13.2068 9.13151 12.9737 9.18887 12.7406 9.18887C9.95468 9.18887 7.16878 9.18887 4.38287 9.1774C4.18471 9.1774 3.95158 9.2577 3.77673 9.09709C5.86325 8.33995 7.94976 7.58282 10.0363 6.82568C16.0044 4.63456 21.9609 2.43198 27.929 0.252334C29.7474 -0.41303 31.1928 0.286749 31.8223 2.11077C32.6499 4.50837 33.4542 6.90598 34.2702 9.30359C33.699 9.16592 33.1162 9.1774 32.5333 9.1774C26.775 9.1774 21.0167 9.1774 15.2584 9.1774C15.0253 9.1774 14.7921 9.13151 14.5707 9.24623C14.1977 9.40683 13.813 9.40683 13.4283 9.2577Z" fill="#FFA944"/>
<path d="M12.4608 17.7927C12.659 16.8979 13.2301 16.3932 14.0344 16.4161C14.8154 16.4276 15.3516 16.9209 15.5498 17.7927C15.5381 18.481 15.5265 19.1693 15.5148 19.8576C15.3866 19.9838 15.2118 20.0297 15.0369 20.0297C14.3492 20.0527 13.6614 20.0527 12.962 20.0297C12.7872 20.0297 12.624 19.9838 12.4841 19.8576C12.4841 19.1693 12.4725 18.481 12.4608 17.7927Z" fill="#9158B6"/>
<path d="M12.4958 19.8576C13.4983 19.8576 14.5124 19.8576 15.5149 19.8576C15.5149 20.546 15.5499 21.2228 15.5149 21.9111C15.4799 22.7256 14.7922 23.3107 13.9646 23.2992C13.1603 23.2877 12.5192 22.7026 12.4725 21.9111C12.4609 21.2228 12.4842 20.5345 12.4958 19.8576Z" fill="#9158B6"/>
<path d="M13.4283 9.25769C13.8129 9.15445 14.1976 9.15445 14.5823 9.25769C15.2467 9.56743 15.5731 10.0722 15.5381 10.8064C15.5148 11.3226 15.5498 11.8388 15.5265 12.3436C15.4798 13.1466 14.7804 13.7661 13.9761 13.7432C13.1835 13.7202 12.5307 13.1352 12.4841 12.3436C12.4491 11.7356 12.4608 11.1276 12.4841 10.5196C12.5074 9.90012 12.8921 9.51007 13.4283 9.25769Z" fill="#9158B6"/>
<path d="M13.44 30.5035C12.7056 30.0905 12.3793 29.494 12.4608 28.6565C12.5075 28.1977 12.4492 27.7388 12.4842 27.2914C12.5424 26.5342 13.2651 25.9262 14.0228 25.9492C14.7921 25.9721 15.4682 26.5457 15.5032 27.2914C15.5382 27.9338 15.5265 28.5877 15.5032 29.2301C15.4915 29.8611 15.0136 30.1823 14.5474 30.5035C14.186 30.5608 13.813 30.5608 13.44 30.5035Z" fill="#9158B6"/>
</g>
<defs>
<clipPath id="clip0_482_8">
<rect width="37.3241" height="30.5379" fill="white"/>
</clipPath>
</defs>
</svg>
