<svg width="35" height="31" viewBox="0 0 35 31" fill="none" xmlns="http://www.w3.org/2000/svg">
<g clip-path="url(#clip0_482_23)">
<path d="M23.1167 9.70622L32.034 10.8723C32.8229 10.9752 33.1315 11.9013 32.5828 12.4843L26.2377 18.8294C26.032 19.0351 25.9291 19.3438 25.9634 19.6525L27.6096 28.5013C27.7468 29.2558 26.958 29.8732 26.272 29.4959L18.2464 25.4488C17.972 25.3116 17.6291 25.3116 17.389 25.4488L9.50056 29.736C8.8146 30.1132 7.99146 29.5302 8.12865 28.7756L9.50056 19.8926C9.53485 19.5839 9.43196 19.2752 9.22617 19.0694L2.70965 12.8616C2.16089 12.3128 2.43527 11.3868 3.22411 11.2496L12.1072 9.84341C12.4158 9.80911 12.6902 9.60333 12.7931 9.32895L16.6344 1.23474C16.9774 0.548787 17.972 0.51449 18.315 1.20044L22.3964 9.22606C22.5679 9.50044 22.808 9.67192 23.1167 9.70622Z" fill="#FFA944"/>
</g>
<defs>
<clipPath id="clip0_482_23">
<rect width="30.4562" height="29.1872" fill="white" transform="translate(2.40088 0.68589)"/>
</clipPath>
</defs>
</svg>
